<svg version="1.1" id="Layer_1" xmlns="http://www.w3.org/2000/svg" xmlns:xlink="http://www.w3.org/1999/xlink" x="0px" y="0px"
	 width="100%" viewBox="0 0 1024 1024" enable-background="new 0 0 1024 1024" xml:space="preserve">
<path fill="#FFFFFF" opacity="1.000000" stroke="none" 
	d="
M1025.000000,769.000000 
	C1025.000000,854.309143 1025.000000,939.618225 1025.000000,1024.963623 
	C683.787720,1024.963623 342.575378,1024.963623 1.000000,1024.963623 
	C1.000000,952.308838 1.000000,879.617065 1.345668,806.639954 
	C3.441005,811.911011 5.190676,817.467346 6.965755,823.354370 
	C7.627113,824.798340 8.263062,825.911804 8.948236,827.316650 
	C9.327712,828.079163 9.657965,828.550232 9.995359,829.012207 
	C10.002501,829.003113 9.982515,829.009155 10.019972,829.298218 
	C10.515480,830.180786 10.973533,830.774292 11.477638,831.364258 
	C11.523691,831.360657 11.524737,831.453003 11.618776,831.735596 
	C12.308349,832.799561 12.903881,833.580994 13.506901,834.351624 
	C13.514388,834.340881 13.540153,834.336609 13.617717,834.628723 
	C14.109234,835.344543 14.523187,835.768188 14.978389,836.402344 
	C15.145810,836.906677 15.368354,837.065918 15.809793,837.358215 
	C16.243200,837.841736 16.554083,838.057556 16.862335,838.191406 
	C16.859709,838.109314 16.705891,838.166748 16.790852,838.440369 
	C17.186539,838.914673 17.497267,839.115295 17.811661,839.232910 
	C17.815327,839.149841 17.661554,839.213196 17.753632,839.515686 
	C18.473118,840.338318 19.100531,840.858521 19.762516,841.307983 
	C19.797092,841.237183 19.641586,841.262573 19.729633,841.532410 
	C20.139091,841.982666 20.460506,842.163086 20.800814,842.264282 
	C20.819706,842.185059 20.662699,842.228455 20.754772,842.498779 
	C21.170555,842.951172 21.494263,843.133179 21.807957,843.246460 
	C21.797945,843.177856 21.691120,843.266418 21.816711,843.539307 
	C22.590370,844.268555 23.238436,844.724792 23.909294,845.133179 
	C23.932085,845.085327 23.831314,845.118286 23.950041,845.379150 
	C24.544920,845.922974 25.021074,846.205994 25.529503,846.470947 
	C25.561779,846.452881 25.626308,846.488953 25.724558,846.729248 
	C26.141453,847.098816 26.460098,847.228088 26.809723,847.284180 
	C26.840698,847.210938 26.682646,847.227905 26.793842,847.485962 
	C27.247211,847.888184 27.589382,848.032227 27.932192,848.128540 
	C27.932831,848.080750 27.842470,848.111938 27.984184,848.382385 
	C28.670906,848.905884 29.215910,849.158997 29.797310,849.336182 
	C29.833704,849.260376 29.666172,849.275818 29.782921,849.529541 
	C30.246838,849.909729 30.594009,850.036316 30.941063,850.117493 
	C30.940947,850.072083 30.854946,850.101074 31.035336,850.395508 
	C33.788204,851.856323 36.360687,853.022766 38.938877,854.139648 
	C38.944588,854.090088 38.847069,854.111328 39.066055,854.403992 
	C45.387669,856.148865 51.489056,858.841309 57.593136,858.847473 
	C91.382355,858.881531 125.172241,858.261536 159.362000,857.929321 
	C160.833969,857.913330 161.905853,857.833496 163.396606,857.776978 
	C168.862350,857.150330 173.909241,856.500427 179.372299,855.903809 
	C185.515976,855.000061 191.255081,854.107361 196.969147,853.075867 
	C243.306442,844.711548 286.553741,828.143921 326.776825,803.745300 
	C382.844482,769.735596 426.908112,723.295105 464.585449,670.258545 
	C466.363068,667.756287 465.723511,666.499817 464.150238,664.328247 
	C444.542786,637.263916 425.005737,610.147705 405.606079,582.934082 
	C398.258392,572.626770 391.310028,562.034790 384.868744,552.583679 
	C362.438507,580.845703 341.101624,610.023071 317.372955,637.104736 
	C279.346313,680.504822 232.089401,709.527222 174.591980,721.290344 
	C153.613022,725.413452 132.761978,726.633972 111.842003,726.936462 
	C96.384789,727.160034 80.920166,726.958862 65.466232,727.291016 
	C55.530956,727.504517 45.660210,728.562012 36.889397,733.892151 
	C36.941662,733.908264 36.940250,733.798889 36.618591,733.843750 
	C35.777679,734.230286 35.258427,734.571899 34.466087,734.921143 
	C33.777245,735.230164 33.361485,735.531555 32.611843,735.902954 
	C30.806747,736.967285 29.335533,737.961670 27.578632,739.027771 
	C26.859221,739.495483 26.425495,739.891418 25.734100,740.376099 
	C24.971647,740.970459 24.466860,741.476013 23.980356,741.992676 
	C23.998640,742.003723 23.988375,741.962158 23.728981,742.036865 
	C23.252268,742.391052 23.034948,742.670593 22.558805,743.028076 
	C21.838127,743.643738 21.376272,744.181396 20.652443,744.840027 
	C20.187021,745.276123 19.983574,745.591248 19.849770,745.909119 
	C19.919411,745.911865 19.888008,745.776062 19.623573,745.870789 
	C19.165764,746.275757 18.972387,746.586060 18.847513,746.908569 
	C18.916016,746.920776 18.904280,746.782104 18.631445,746.880005 
	C18.140919,747.289795 17.923227,747.601685 17.503054,747.969727 
	C17.046858,748.197632 16.919806,748.436768 16.665522,748.867676 
	C16.226315,749.312378 16.041000,749.632568 15.906229,749.954590 
	C15.956770,749.956421 15.941045,749.856506 15.691797,749.958374 
	C15.272863,750.366028 15.103177,750.671753 14.965612,750.985352 
	C14.997732,750.993103 14.964295,750.935974 14.699312,751.075012 
	C14.159723,751.733337 13.885118,752.252686 13.687445,752.812683 
	C13.764375,752.853394 13.771708,752.679504 13.505857,752.789185 
	C13.070749,753.240417 12.901491,753.582092 12.516859,754.006836 
	C12.053849,754.314026 11.945976,754.592346 11.726278,755.094849 
	C11.244685,755.819214 11.014684,756.373474 10.841780,756.928101 
	C10.898876,756.928406 10.861023,756.820618 10.563099,756.996826 
	C9.024220,759.673706 7.783265,762.174255 6.677063,764.836121 
	C6.811816,764.997375 6.514223,764.700562 6.312728,764.865356 
	C5.856385,765.683044 5.601537,766.336060 5.174691,767.339966 
	C3.668464,772.127319 2.334234,776.563660 1.000003,781.000000 
	C1.000000,601.308411 1.000000,421.616852 1.252354,241.760498 
	C4.165062,263.260956 14.366337,280.060638 33.521736,291.020782 
	C45.018669,297.599030 57.658150,298.936157 70.593407,298.990540 
	C101.193031,299.119171 131.797821,298.277588 162.168060,303.855225 
	C204.821991,311.688782 243.100616,328.951813 277.116180,355.666260 
	C308.397247,380.233032 334.801758,409.582794 357.583710,441.955872 
	C385.602356,481.770355 412.562439,522.333801 439.743134,562.732910 
	C471.522736,609.967468 504.442505,656.331604 542.842529,698.510620 
	C581.665588,741.154358 626.175049,776.239319 679.295166,799.629517 
	C710.130310,813.207092 742.241760,822.221130 775.733826,826.130310 
	C786.725830,827.413330 797.748291,828.435303 809.362610,829.639465 
	C805.133972,835.059937 801.123413,840.260071 797.050171,845.410706 
	C787.272522,857.774658 782.051941,871.600647 781.683044,887.575317 
	C780.840881,924.042603 812.120178,955.974976 849.552612,954.924438 
	C870.892822,954.325623 887.086304,943.785034 900.654907,927.769348 
	C932.397888,890.301453 964.572571,853.199219 996.547974,815.928040 
	C1001.967041,809.611572 1007.319702,803.236267 1012.604614,796.807129 
	C1019.277954,788.689209 1022.250793,778.886169 1025.000000,769.000000 
z"/>
<path fill="#FFFFFF" opacity="1.000000" stroke="none" 
	d="
M1025.000000,276.000000 
	C1025.000000,432.691559 1025.000000,589.383118 1024.724365,746.275330 
	C1023.052673,737.094727 1019.893799,728.320251 1013.695068,721.121765 
	C991.642029,695.511963 969.351318,670.106812 947.167542,644.609436 
	C930.663513,625.640015 914.016235,606.791687 897.743774,587.625366 
	C881.328125,568.290405 861.239624,559.082581 835.618530,562.927917 
	C810.057556,566.764221 785.702698,593.484924 783.810791,619.133728 
	C782.391785,638.372986 788.054932,654.694641 800.567993,669.089661 
	C807.619263,677.201416 814.234802,685.691895 821.315552,694.340271 
	C820.286926,694.545715 819.855347,694.722961 819.433105,694.703125 
	C801.815063,693.872498 784.418640,691.661560 767.254150,687.381531 
	C712.540833,673.738770 668.862610,642.839539 631.637756,601.560242 
	C605.611450,572.699158 582.628662,541.513000 560.831482,509.436310 
	C534.869507,471.230682 509.511078,432.613892 483.449768,394.476929 
	C448.478058,343.300934 409.533539,295.552002 361.434113,255.883728 
	C320.035339,221.741547 273.792755,196.751617 222.141266,181.991333 
	C191.674805,173.285034 160.566925,168.379303 128.884949,167.848190 
	C105.419701,167.454819 81.902779,166.986313 58.479702,168.075058 
	C32.246368,169.294449 10.387267,188.189331 3.405788,213.523926 
	C2.540179,216.665085 1.798895,219.840469 1.000001,223.000000 
	C1.000000,149.020996 1.000000,75.042000 1.000000,1.031499 
	C342.215454,1.031499 683.430908,1.031499 1025.000000,1.031499 
	C1025.000000,85.691254 1025.000000,170.382996 1024.699951,255.313171 
	C1022.201599,242.175583 1014.684082,231.888153 1005.745911,222.173065 
	C979.244751,193.368225 952.979614,164.346191 926.645264,135.388123 
	C912.868713,120.239082 899.796692,104.377502 885.207642,90.059280 
	C870.326294,75.454178 851.608765,70.153404 830.982300,74.665886 
	C806.584045,80.003540 790.811646,95.465660 783.648987,119.019745 
	C776.599121,142.203033 782.852661,162.575272 799.379761,180.013336 
	C805.171082,186.123917 810.851196,192.339813 816.846252,198.791855 
	C813.284973,199.211395 810.319702,199.516129 807.367249,199.915787 
	C787.157349,202.651489 766.701660,204.218063 746.788818,208.379822 
	C687.734497,220.722122 636.678833,249.024719 591.697876,288.818481 
	C564.020020,313.304474 540.064453,341.223724 516.790710,369.769501 
	C515.917236,370.840820 515.673950,373.570312 516.415161,374.647919 
	C541.168274,410.636169 566.077209,446.517212 591.103516,482.616119 
	C591.406677,482.241486 591.812866,481.778992 592.176147,481.284973 
	C613.010437,452.952545 634.853394,425.509125 660.789185,401.544220 
	C697.612122,367.519440 739.861755,344.141754 789.617615,335.437134 
	C798.801697,333.830444 808.116455,332.970276 818.501160,331.618408 
	C810.330078,341.696228 802.671875,350.457794 795.785034,359.788666 
	C784.229431,375.445038 780.132812,393.153442 784.611694,412.136078 
	C790.890747,438.748657 808.114319,455.559296 834.443054,461.511200 
	C859.926025,467.272003 881.104126,458.335541 897.921448,438.484619 
	C929.776489,400.883392 961.826172,363.446960 993.638672,325.809906 
	C1006.405029,310.706055 1021.582397,297.028076 1025.000000,276.000000 
z"/>
<path fill="#0D98F4" opacity="1.000000" stroke="none" 
	d="
M1.000001,223.467941 
	C1.798895,219.840469 2.540179,216.665085 3.405788,213.523926 
	C10.387267,188.189331 32.246368,169.294449 58.479702,168.075058 
	C81.902779,166.986313 105.419701,167.454819 128.884949,167.848190 
	C160.566925,168.379303 191.674805,173.285034 222.141266,181.991333 
	C273.792755,196.751617 320.035339,221.741547 361.434113,255.883728 
	C409.533539,295.552002 448.478058,343.300934 483.449768,394.476929 
	C509.511078,432.613892 534.869507,471.230682 560.831482,509.436310 
	C582.628662,541.513000 605.611450,572.699158 631.637756,601.560242 
	C668.862610,642.839539 712.540833,673.738770 767.254150,687.381531 
	C784.418640,691.661560 801.815063,693.872498 819.433105,694.703125 
	C819.855347,694.722961 820.286926,694.545715 821.315552,694.340271 
	C814.234802,685.691895 807.619263,677.201416 800.567993,669.089661 
	C788.054932,654.694641 782.391785,638.372986 783.810791,619.133728 
	C785.702698,593.484924 810.057556,566.764221 835.618530,562.927917 
	C861.239624,559.082581 881.328125,568.290405 897.743774,587.625366 
	C914.016235,606.791687 930.663513,625.640015 947.167542,644.609436 
	C969.351318,670.106812 991.642029,695.511963 1013.695068,721.121765 
	C1019.893799,728.320251 1023.052673,737.094727 1024.724365,746.737976 
	C1025.000000,754.020935 1025.000000,761.041931 1025.000000,768.531433 
	C1022.250793,778.886169 1019.277954,788.689209 1012.604614,796.807129 
	C1007.319702,803.236267 1001.967041,809.611572 996.547974,815.928040 
	C964.572571,853.199219 932.397888,890.301453 900.654907,927.769348 
	C887.086304,943.785034 870.892822,954.325623 849.552612,954.924438 
	C812.120178,955.974976 780.840881,924.042603 781.683044,887.575317 
	C782.051941,871.600647 787.272522,857.774658 797.050171,845.410706 
	C801.123413,840.260071 805.133972,835.059937 809.362610,829.639465 
	C797.748291,828.435303 786.725830,827.413330 775.733826,826.130310 
	C742.241760,822.221130 710.130310,813.207092 679.295166,799.629517 
	C626.175049,776.239319 581.665588,741.154358 542.842529,698.510620 
	C504.442505,656.331604 471.522736,609.967468 439.743134,562.732910 
	C412.562439,522.333801 385.602356,481.770355 357.583710,441.955872 
	C334.801758,409.582794 308.397247,380.233032 277.116180,355.666260 
	C243.100616,328.951813 204.821991,311.688782 162.168060,303.855225 
	C131.797821,298.277588 101.193031,299.119171 70.593407,298.990540 
	C57.658150,298.936157 45.018669,297.599030 33.521736,291.020782 
	C14.366337,280.060638 4.165062,263.260956 1.252354,241.297852 
	C1.000000,235.311966 1.000000,229.623917 1.000001,223.467941 
z"/>
<path fill="#0D98F4" opacity="1.000000" stroke="none" 
	d="
M1025.000000,275.531616 
	C1021.582397,297.028076 1006.405029,310.706055 993.638672,325.809906 
	C961.826172,363.446960 929.776489,400.883392 897.921448,438.484619 
	C881.104126,458.335541 859.926025,467.272003 834.443054,461.511200 
	C808.114319,455.559296 790.890747,438.748657 784.611694,412.136078 
	C780.132812,393.153442 784.229431,375.445038 795.785034,359.788666 
	C802.671875,350.457794 810.330078,341.696228 818.501160,331.618408 
	C808.116455,332.970276 798.801697,333.830444 789.617615,335.437134 
	C739.861755,344.141754 697.612122,367.519440 660.789185,401.544220 
	C634.853394,425.509125 613.010437,452.952545 592.176147,481.284973 
	C591.812866,481.778992 591.406677,482.241486 591.103516,482.616119 
	C566.077209,446.517212 541.168274,410.636169 516.415161,374.647919 
	C515.673950,373.570312 515.917236,370.840820 516.790710,369.769501 
	C540.064453,341.223724 564.020020,313.304474 591.697876,288.818481 
	C636.678833,249.024719 687.734497,220.722122 746.788818,208.379822 
	C766.701660,204.218063 787.157349,202.651489 807.367249,199.915787 
	C810.319702,199.516129 813.284973,199.211395 816.846252,198.791855 
	C810.851196,192.339813 805.171082,186.123917 799.379761,180.013336 
	C782.852661,162.575272 776.599121,142.203033 783.648987,119.019745 
	C790.811646,95.465660 806.584045,80.003540 830.982300,74.665886 
	C851.608765,70.153404 870.326294,75.454178 885.207642,90.059280 
	C899.796692,104.377502 912.868713,120.239082 926.645264,135.388123 
	C952.979614,164.346191 979.244751,193.368225 1005.745911,222.173065 
	C1014.684082,231.888153 1022.201599,242.175583 1024.699951,255.775803 
	C1025.000000,262.354401 1025.000000,268.708801 1025.000000,275.531616 
z"/>
<path fill="#0D98F4" opacity="1.000000" stroke="none" 
	d="
M20.914429,744.719055 
	C21.376272,744.181396 21.838127,743.643738 22.812103,742.941162 
	C23.545605,742.504822 23.766989,742.233521 23.988373,741.962158 
	C23.988375,741.962158 23.998640,742.003723 24.281300,741.967773 
	C25.039883,741.383667 25.515810,740.835510 25.991753,740.287354 
	C26.425495,739.891418 26.859221,739.495483 27.961555,739.035889 
	C30.068680,737.925781 31.507196,736.879333 32.945717,735.832886 
	C33.361485,735.531555 33.777245,735.230164 34.805962,734.923645 
	C35.926025,734.545288 36.433132,734.172058 36.940243,733.798889 
	C36.940250,733.798889 36.941662,733.908264 37.301586,733.931335 
	C39.250664,733.572266 40.841656,733.197632 42.428635,732.806702 
	C47.557869,731.543213 52.653538,729.347717 57.819538,729.168701 
	C78.746712,728.443848 99.713120,728.757507 120.630379,727.870361 
	C136.970596,727.177307 153.266190,725.347412 169.562469,723.818420 
	C171.434036,723.642761 173.182358,722.153503 174.987808,721.273315 
	C232.089401,709.527222 279.346313,680.504822 317.372955,637.104736 
	C341.101624,610.023071 362.438507,580.845703 384.868744,552.583679 
	C391.310028,562.034790 398.258392,572.626770 405.606079,582.934082 
	C425.005737,610.147705 444.542786,637.263916 464.150238,664.328247 
	C465.723511,666.499817 466.363068,667.756287 464.585449,670.258545 
	C426.908112,723.295105 382.844482,769.735596 326.776825,803.745300 
	C286.553741,828.143921 243.306442,844.711548 196.969147,853.075867 
	C191.255081,854.107361 185.515976,855.000061 179.067902,855.639954 
	C172.873825,855.322815 167.400314,855.322815 160.665466,855.322815 
	C162.305862,857.047302 162.641815,857.400452 162.977753,857.753662 
	C161.905853,857.833496 160.833969,857.913330 159.052734,857.658508 
	C151.415390,857.548462 144.487915,857.945190 137.559280,857.966614 
	C112.278046,858.044739 86.996391,858.015503 61.715027,857.965393 
	C59.588661,857.961182 57.444080,857.607483 55.341042,857.231262 
	C49.833263,856.245972 44.343819,855.158264 38.847069,854.111328 
	C38.847069,854.111328 38.944588,854.090088 38.826752,853.799622 
	C36.090923,852.373108 33.472935,851.237122 30.854946,850.101074 
	C30.854946,850.101074 30.940947,850.072083 30.825695,849.853333 
	C30.362354,849.514954 30.014265,849.395386 29.666174,849.275818 
	C29.666172,849.275818 29.833704,849.260376 29.738253,849.000488 
	C29.042692,848.531006 28.442585,848.321472 27.842472,848.111938 
	C27.842470,848.111938 27.932831,848.080750 27.823261,847.861084 
	C27.370010,847.503540 27.026331,847.365723 26.682650,847.227905 
	C26.682646,847.227905 26.840698,847.210938 26.761332,846.983826 
	C26.330080,846.667480 25.978195,846.578186 25.626308,846.488953 
	C25.626308,846.488953 25.561779,846.452881 25.576485,846.130615 
	C25.004564,845.578369 24.417942,845.348328 23.831316,845.118286 
	C23.831314,845.118286 23.932085,845.085327 23.901958,844.772705 
	C23.144930,844.062134 22.418028,843.664307 21.691124,843.266418 
	C21.691120,843.266418 21.797945,843.177856 21.746090,842.950684 
	C21.350391,842.558533 21.006548,842.393494 20.662701,842.228455 
	C20.662699,842.228455 20.819706,842.185059 20.752380,841.962524 
	C20.337229,841.580933 19.989405,841.421753 19.641582,841.262573 
	C19.641586,841.262573 19.797092,841.237183 19.753021,840.964111 
	C19.026497,840.198486 18.344040,839.705811 17.661568,839.213135 
	C17.661554,839.213196 17.815327,839.149841 17.757687,838.938232 
	C17.368664,838.539978 17.037281,838.353333 16.705894,838.166748 
	C16.705891,838.166748 16.859709,838.109314 16.776680,837.900024 
	C16.358185,837.490601 16.022717,837.290588 15.687259,837.090576 
	C15.368354,837.065918 15.145810,836.906677 14.968644,836.059082 
	C14.458474,835.115723 13.999297,834.726196 13.540136,834.336670 
	C13.540153,834.336609 13.514388,834.340881 13.649385,833.995605 
	C13.031157,832.917908 12.277933,832.185486 11.524723,831.453003 
	C11.524737,831.453003 11.523691,831.360657 11.633738,831.032776 
	C11.156695,830.139648 10.569607,829.574402 9.982517,829.009155 
	C9.982515,829.009155 10.002501,829.003113 9.968130,828.706055 
	C9.588838,827.947754 9.243917,827.486511 8.899004,827.025208 
	C8.263062,825.911804 7.627113,824.798340 7.229434,823.152222 
	C6.041609,817.117981 4.666109,811.602661 3.163591,806.122131 
	C2.592815,804.040222 1.729813,802.038330 1.000002,800.000000 
	C1.000000,793.978821 1.000000,787.957703 1.000003,781.468262 
	C2.334234,776.563660 3.668464,772.127319 5.483373,767.263428 
	C6.147444,766.124084 6.330836,765.412354 6.514225,764.700562 
	C6.514223,764.700562 6.811816,764.997375 7.040514,764.803101 
	C8.466475,762.012817 9.663739,759.416687 10.861012,756.820618 
	C10.861023,756.820618 10.898876,756.928406 11.135779,756.800659 
	C11.574409,756.090210 11.776134,755.507507 11.977865,754.924866 
	C11.945976,754.592346 12.053849,754.314026 12.796412,753.904846 
	C13.451461,753.373047 13.611584,753.026245 13.771708,752.679504 
	C13.771708,752.679504 13.764375,752.853394 14.012959,752.756592 
	C14.495794,752.085144 14.730045,751.510559 14.964296,750.935974 
	C14.964295,750.935974 14.997732,750.993103 15.204578,750.871704 
	C15.587962,750.452332 15.764501,750.154419 15.941042,749.856506 
	C15.941045,749.856506 15.956770,749.956421 16.166977,749.837158 
	C16.557926,749.393066 16.738670,749.068115 16.919415,748.743225 
	C16.919806,748.436768 17.046858,748.197632 17.785351,747.882996 
	C18.481520,747.420837 18.692911,747.101501 18.904291,746.782104 
	C18.904280,746.782104 18.916016,746.920776 19.121113,746.824585 
	C19.513474,746.410889 19.700737,746.093506 19.888004,745.776062 
	C19.888008,745.776062 19.919411,745.911865 20.128384,745.810303 
	C20.529718,745.378906 20.722080,745.048950 20.914429,744.719055 
z"/>
<path fill="#0A84F1" opacity="1.000000" stroke="none" 
	d="
M1.000002,800.428467 
	C1.729813,802.038330 2.592815,804.040222 3.163591,806.122131 
	C4.666109,811.602661 6.041609,817.117981 7.204024,822.821594 
	C5.190676,817.467346 3.441005,811.911011 1.345668,806.177307 
	C1.000000,804.285645 1.000000,802.571289 1.000002,800.428467 
z"/>
<path fill="#0A8BF4" opacity="1.000000" stroke="none" 
	d="
M174.592010,721.290405 
	C173.182358,722.153503 171.434036,723.642761 169.562469,723.818420 
	C153.266190,725.347412 136.970596,727.177307 120.630379,727.870361 
	C99.713120,728.757507 78.746712,728.443848 57.819538,729.168701 
	C52.653538,729.347717 47.557869,731.543213 42.428635,732.806702 
	C40.841656,733.197632 39.250664,733.572266 37.249321,733.915222 
	C45.660210,728.562012 55.530956,727.504517 65.466232,727.291016 
	C80.920166,726.958862 96.384789,727.160034 111.842003,726.936462 
	C132.761978,726.633972 153.613022,725.413452 174.592010,721.290405 
z"/>
<path fill="#0A84F1" opacity="1.000000" stroke="none" 
	d="
M39.066055,854.403992 
	C44.343819,855.158264 49.833263,856.245972 55.341042,857.231262 
	C57.444080,857.607483 59.588661,857.961182 61.715027,857.965393 
	C86.996391,858.015503 112.278046,858.044739 137.559280,857.966614 
	C144.487915,857.945190 151.415390,857.548462 158.652649,857.594727 
	C125.172241,858.261536 91.382355,858.881531 57.593136,858.847473 
	C51.489056,858.841309 45.387669,856.148865 39.066055,854.403992 
z"/>
<path fill="#0A84F1" opacity="1.000000" stroke="none" 
	d="
M163.396606,857.776978 
	C162.641815,857.400452 162.305862,857.047302 160.665466,855.322815 
	C167.400314,855.322815 172.873825,855.322815 178.651733,855.586670 
	C173.909241,856.500427 168.862350,857.150330 163.396606,857.776978 
z"/>
<path fill="#0A84F1" opacity="1.000000" stroke="none" 
	d="
M31.035336,850.395508 
	C33.472935,851.237122 36.090923,852.373108 38.821037,853.849243 
	C36.360687,853.022766 33.788204,851.856323 31.035336,850.395508 
z"/>
<path fill="#0A8BF4" opacity="1.000000" stroke="none" 
	d="
M10.563089,756.996826 
	C9.663739,759.416687 8.466475,762.012817 6.905762,764.641846 
	C7.783265,762.174255 9.024220,759.673706 10.563089,756.996826 
z"/>
<path fill="#0A8BF4" opacity="1.000000" stroke="none" 
	d="
M32.611839,735.902893 
	C31.507196,736.879333 30.068680,737.925781 28.247242,738.964111 
	C29.335533,737.961670 30.806747,736.967285 32.611839,735.902893 
z"/>
<path fill="#0A84F1" opacity="1.000000" stroke="none" 
	d="
M11.618762,831.735596 
	C12.277933,832.185486 13.031157,832.917908 13.641897,834.006348 
	C12.903881,833.580994 12.308349,832.799561 11.618762,831.735596 
z"/>
<path fill="#0A84F1" opacity="1.000000" stroke="none" 
	d="
M21.816715,843.539307 
	C22.418028,843.664307 23.144930,844.062134 23.879168,844.820557 
	C23.238436,844.724792 22.590370,844.268555 21.816715,843.539307 
z"/>
<path fill="#0A84F1" opacity="1.000000" stroke="none" 
	d="
M10.019973,829.298218 
	C10.569607,829.574402 11.156695,830.139648 11.587685,831.036377 
	C10.973533,830.774292 10.515480,830.180786 10.019973,829.298218 
z"/>
<path fill="#0A8BF4" opacity="1.000000" stroke="none" 
	d="
M25.734085,740.376099 
	C25.515810,740.835510 25.039883,741.383667 24.263016,741.956665 
	C24.466860,741.476013 24.971647,740.970459 25.734085,740.376099 
z"/>
<path fill="#0A84F1" opacity="1.000000" stroke="none" 
	d="
M17.753645,839.515625 
	C18.344040,839.705811 19.026497,840.198486 19.718447,841.034912 
	C19.100531,840.858521 18.473118,840.338318 17.753645,839.515625 
z"/>
<path fill="#0A8BF4" opacity="1.000000" stroke="none" 
	d="
M6.312730,764.865356 
	C6.330836,765.412354 6.147444,766.124084 5.655371,766.912476 
	C5.601537,766.336060 5.856385,765.683044 6.312730,764.865356 
z"/>
<path fill="#0A84F1" opacity="1.000000" stroke="none" 
	d="
M27.984188,848.382385 
	C28.442585,848.321472 29.042692,848.531006 29.701859,849.076294 
	C29.215910,849.158997 28.670906,848.905884 27.984188,848.382385 
z"/>
<path fill="#0A84F1" opacity="1.000000" stroke="none" 
	d="
M23.950043,845.379150 
	C24.417942,845.348328 25.004564,845.578369 25.544209,846.148682 
	C25.021074,846.205994 24.544920,845.922974 23.950043,845.379150 
z"/>
<path fill="#0A84F1" opacity="1.000000" stroke="none" 
	d="
M13.617701,834.628784 
	C13.999297,834.726196 14.458474,835.115723 14.927395,835.848633 
	C14.523187,835.768188 14.109234,835.344543 13.617701,834.628784 
z"/>
<path fill="#0A84F1" opacity="1.000000" stroke="none" 
	d="
M8.948229,827.316650 
	C9.243917,827.486511 9.588838,827.947754 9.960988,828.715210 
	C9.657965,828.550232 9.327712,828.079163 8.948229,827.316650 
z"/>
<path fill="#0A8BF4" opacity="1.000000" stroke="none" 
	d="
M36.618584,733.843750 
	C36.433132,734.172058 35.926025,734.545288 35.079048,734.916016 
	C35.258427,734.571899 35.777679,734.230286 36.618584,733.843750 
z"/>
<path fill="#0A8BF4" opacity="1.000000" stroke="none" 
	d="
M14.699313,751.075012 
	C14.730045,751.510559 14.495794,752.085144 13.936028,752.715820 
	C13.885118,752.252686 14.159723,751.733337 14.699313,751.075012 
z"/>
<path fill="#0A8BF4" opacity="1.000000" stroke="none" 
	d="
M11.726274,755.094849 
	C11.776134,755.507507 11.574409,756.090210 11.078682,756.800293 
	C11.014684,756.373474 11.244685,755.819214 11.726274,755.094849 
z"/>
<path fill="#0A8BF4" opacity="1.000000" stroke="none" 
	d="
M16.665520,748.867676 
	C16.738670,749.068115 16.557926,749.393066 16.116436,749.835388 
	C16.041000,749.632568 16.226315,749.312378 16.665520,748.867676 
z"/>
<path fill="#0A8BF4" opacity="1.000000" stroke="none" 
	d="
M23.728979,742.036865 
	C23.766989,742.233521 23.545605,742.504822 23.070927,742.863159 
	C23.034948,742.670593 23.252268,742.391052 23.728979,742.036865 
z"/>
<path fill="#0A8BF4" opacity="1.000000" stroke="none" 
	d="
M20.652456,744.840027 
	C20.722080,745.048950 20.529718,745.378906 20.058743,745.807617 
	C19.983574,745.591248 20.187021,745.276123 20.652456,744.840027 
z"/>
<path fill="#0A84F1" opacity="1.000000" stroke="none" 
	d="
M29.782921,849.529541 
	C30.014265,849.395386 30.362354,849.514954 30.825813,849.898743 
	C30.594009,850.036316 30.246838,849.909729 29.782921,849.529541 
z"/>
<path fill="#0A8BF4" opacity="1.000000" stroke="none" 
	d="
M19.623571,745.870789 
	C19.700737,746.093506 19.513474,746.410889 19.052610,746.812378 
	C18.972387,746.586060 19.165764,746.275757 19.623571,745.870789 
z"/>
<path fill="#0A84F1" opacity="1.000000" stroke="none" 
	d="
M26.793846,847.485962 
	C27.026331,847.365723 27.370010,847.503540 27.822620,847.908875 
	C27.589382,848.032227 27.247211,847.888184 26.793846,847.485962 
z"/>
<path fill="#0A84F1" opacity="1.000000" stroke="none" 
	d="
M25.724558,846.729248 
	C25.978195,846.578186 26.330080,846.667480 26.730354,847.057007 
	C26.460098,847.228088 26.141453,847.098816 25.724558,846.729248 
z"/>
<path fill="#0A8BF4" opacity="1.000000" stroke="none" 
	d="
M18.631456,746.880005 
	C18.692911,747.101501 18.481520,747.420837 17.987831,747.826904 
	C17.923227,747.601685 18.140919,747.289795 18.631456,746.880005 
z"/>
<path fill="#0A84F1" opacity="1.000000" stroke="none" 
	d="
M20.754774,842.498779 
	C21.006548,842.393494 21.350391,842.558533 21.756104,843.019348 
	C21.494263,843.133179 21.170555,842.951172 20.754774,842.498779 
z"/>
<path fill="#0A84F1" opacity="1.000000" stroke="none" 
	d="
M19.729630,841.532410 
	C19.989405,841.421753 20.337229,841.580933 20.733488,842.041809 
	C20.460506,842.163086 20.139091,841.982666 19.729630,841.532410 
z"/>
<path fill="#0A8BF4" opacity="1.000000" stroke="none" 
	d="
M15.691794,749.958374 
	C15.764501,750.154419 15.587962,750.452332 15.172458,750.863892 
	C15.103177,750.671753 15.272863,750.366028 15.691794,749.958374 
z"/>
<path fill="#0A84F1" opacity="1.000000" stroke="none" 
	d="
M16.790855,838.440369 
	C17.037281,838.353333 17.368664,838.539978 17.754021,839.021301 
	C17.497267,839.115295 17.186539,838.914673 16.790855,838.440369 
z"/>
<path fill="#0A84F1" opacity="1.000000" stroke="none" 
	d="
M15.809784,837.358276 
	C16.022717,837.290588 16.358185,837.490601 16.779308,837.982056 
	C16.554083,838.057556 16.243200,837.841736 15.809784,837.358276 
z"/>
<path fill="#0A8BF4" opacity="1.000000" stroke="none" 
	d="
M13.505857,752.789185 
	C13.611584,753.026245 13.451461,753.373047 13.011786,753.821777 
	C12.901491,753.582092 13.070749,753.240417 13.505857,752.789185 
z"/>
</svg>